<svg width="12" height="14" viewBox="0 0 12 14" fill="none" xmlns="http://www.w3.org/2000/svg">
<path d="M9.50369 0C9.50369 0 8.35183 1.11753 7.10608 1.56808C-2.11908 4.90485 1.77156 11.4073 1.89849 11.4287C1.89849 11.4287 2.41579 10.5279 3.11459 10.014C7.54886 6.75421 8.45012 3.00198 8.45012 3.00198C8.45012 3.00198 7.45507 7.51711 3.51012 10.3266C2.63882 10.9467 2.04885 12.4738 1.79911 14C1.79911 14 2.41673 13.7505 2.68232 13.6829C2.78588 13.007 3.00241 12.3599 3.36849 11.7818C8.88203 12.4382 10.6878 7.99549 10.9237 6.44635C11.4805 2.7876 9.50369 0 9.50369 0Z" fill="white"/>
</svg>
