<svg width="14" height="14" viewBox="0 0 14 14" fill="none" xmlns="http://www.w3.org/2000/svg">
<g clip-path="url(#clip0_1583:466)">
<path d="M1.77839 4.36518L5.01804 4.78166C5.1311 5.06873 5.70078 6.4818 5.80789 6.73466C5.80789 6.73466 5.80789 6.73466 5.80638 6.73466C4.86781 7.19874 3.92923 7.66133 2.99066 8.12541C3.31641 8.06592 3.64662 8.03617 3.97832 8.03617C4.41265 8.03617 4.83806 8.08823 5.24413 8.19086C6.06371 8.3991 6.80446 8.73227 7.51992 9.05506C8.15803 9.34213 8.76193 9.61435 9.36434 9.77053C9.44913 9.79284 9.53094 9.81218 9.61275 9.82853C8.89878 8.36638 6.97849 4.42616 6.59919 3.55899C6.4207 3.14994 6.17527 2.99823 5.82722 2.9536L2.02235 2.46424C1.49728 2.3973 1.01684 2.76767 0.948416 3.29274C0.882954 3.8178 1.25333 4.29824 1.77839 4.36518Z" fill="white"/>
<path d="M0.248022 11.1985C0.35363 11.2744 0.474113 11.3101 0.594596 11.3101C0.62137 11.3101 0.646656 11.3086 0.671943 11.3041C0.829611 11.2833 0.978356 11.2 1.07801 11.0617C1.46326 10.5247 2.05972 10.1023 2.75436 9.87021C3.15299 9.73784 3.56948 9.67091 3.97852 9.67091C5.4615 9.67091 6.73326 10.5574 8.07195 11.0676C8.78889 11.3413 9.53708 11.5436 10.3507 11.5436C10.6928 11.5436 11.0468 11.5079 11.4142 11.4261C12.2784 11.2357 13.0192 10.8252 13.5547 10.2495C13.6826 10.1112 13.7986 9.96541 13.9012 9.80923C14.0827 9.53554 14.0068 9.16665 13.7331 8.98518C13.632 8.91825 13.519 8.88701 13.4059 8.88701C13.2125 8.88701 13.0236 8.98072 12.9091 9.15327C12.863 9.22316 12.8124 9.2901 12.7574 9.35556C12.3855 9.79882 11.8277 10.1171 11.1584 10.2644C10.5411 10.3998 9.85985 10.3596 9.2515 10.2019C8.6119 10.0353 7.99311 9.75718 7.33566 9.46117C6.63656 9.14732 5.91516 8.82157 5.13278 8.62226C4.76092 8.52707 4.37121 8.48096 3.97704 8.48096C3.44007 8.48096 2.89418 8.5687 2.37506 8.74126C1.92139 8.89298 1.50045 9.10418 1.12264 9.37045C0.724003 9.65157 0.383379 9.98625 0.10969 10.367C0.0918409 10.3923 0.0769665 10.4176 0.0635796 10.4444C-0.0658278 10.7017 0.00556939 11.0245 0.248022 11.1985Z" fill="white"/>
<path d="M11.0202 8.43782C12.1793 8.43782 13.1189 7.49816 13.1189 6.33903C13.1189 5.1799 12.1793 4.24023 11.0202 4.24023C9.86104 4.24023 8.92139 5.1799 8.92139 6.33903C8.92139 7.49816 9.86104 8.43782 11.0202 8.43782Z" fill="white"/>
</g>
<defs>
<clipPath id="clip0_1583:466">
<rect width="14" height="14" fill="white"/>
</clipPath>
</defs>
</svg>
