<svg width="14" height="14" viewBox="0 0 14 14" fill="none" xmlns="http://www.w3.org/2000/svg">
<g clip-path="url(#clip0_12:176)">
<path d="M7.03278 12.2681C7.93607 12.2681 8.66833 11.5358 8.66833 10.6325C8.66833 9.72921 7.93607 8.99695 7.03278 8.99695C6.12948 8.99695 5.39722 9.72921 5.39722 10.6325C5.39722 11.5358 6.12948 12.2681 7.03278 12.2681Z" fill="white"/>
<path d="M10.9419 6.69186C10.9176 6.66692 10.892 6.64467 10.867 6.62175L10.7936 6.5523C10.7814 6.5395 10.7679 6.53006 10.7524 6.51792C8.63753 4.59651 5.4008 4.67269 3.38231 6.69119L3.14567 6.9285L2.81802 7.25615C2.4189 7.65526 2.42093 8.30584 2.82071 8.70563C3.22118 9.10677 3.87176 9.10744 4.2702 8.70833L4.83516 8.14337C6.1188 6.86041 8.20673 6.86041 9.48969 8.14269L9.89757 8.53776C10.2926 8.93283 10.9372 8.93216 11.3342 8.53439C11.5264 8.34292 11.6322 8.08741 11.6329 7.81572C11.6336 7.54537 11.5291 7.28986 11.3369 7.09906L10.9419 6.69186Z" fill="white"/>
<path d="M13.7282 4.67003L13.3884 4.33025C13.387 4.3289 13.3863 4.32688 13.3836 4.3262L13.1153 4.05653C13.0681 4.01001 13.0169 3.96956 12.963 3.9345C9.51588 0.908115 4.27279 1.00115 0.935605 4.21159C0.919425 4.22642 0.901222 4.23654 0.885042 4.25272L0.271539 4.86689C-0.0925177 5.23028 -0.0904951 5.82153 0.275584 6.18761C0.640989 6.55302 1.23224 6.55571 1.5963 6.19098L2.2098 5.57815C2.21385 5.57276 2.21722 5.56804 2.22126 5.56467C4.92 2.95762 9.20104 2.94144 11.9214 5.51141L12.4041 5.99479C12.7674 6.35818 13.36 6.35683 13.7255 5.99142C14.0902 5.62534 14.0915 5.03342 13.7282 4.67003Z" fill="white"/>
</g>
<defs>
<clipPath id="clip0_12:176">
<rect width="14" height="14" fill="white"/>
</clipPath>
</defs>
</svg>
