<svg width="12" height="11" viewBox="0 0 12 11" fill="none" xmlns="http://www.w3.org/2000/svg">
<path d="M11.7512 5.4117L6.63668 0.450308L6.29387 0.117579C6.21576 0.0422678 6.11013 0 6.00002 0C5.88992 0 5.78429 0.0422678 5.70618 0.117579L0.248895 5.4117C0.168858 5.48907 0.105602 5.58123 0.0628634 5.68273C0.0201246 5.78423 -0.0012318 5.893 5.48636e-05 6.00264C0.00534934 6.45485 0.39317 6.81584 0.859084 6.81584H1.42162V11H10.5784V6.81584H11.1529C11.3792 6.81584 11.5923 6.72976 11.7525 6.57432C11.8313 6.49803 11.8938 6.4073 11.9363 6.30741C11.9788 6.20752 12.0004 6.10043 12 5.99236C12 5.77397 11.9113 5.56714 11.7512 5.4117ZM6.74125 10.075H5.2588V7.45432H6.74125V10.075ZM9.62542 5.89088V10.075H7.58837V7.146C7.58837 6.86208 7.35144 6.63213 7.05892 6.63213H4.94113C4.64861 6.63213 4.41168 6.86208 4.41168 7.146V10.075H2.37463V5.89088H1.10395L6.00135 1.14146L6.3071 1.43822L10.8974 5.89088H9.62542Z" fill="#009B9B"/>
</svg>
