<svg width="36" height="40" viewBox="0 0 36 40" fill="none" xmlns="http://www.w3.org/2000/svg">
<path d="M18 0.5C20.2985 0.5 22.5029 1.41309 24.1282 3.03841C25.7535 4.66372 26.6666 6.86812 26.6666 9.16667C26.6666 11.4652 25.7535 13.6696 24.1282 15.2949C22.5029 16.9202 20.2985 17.8333 18 17.8333C15.7014 17.8333 13.497 16.9202 11.8717 15.2949C10.2464 13.6696 9.33329 11.4652 9.33329 9.16667C9.33329 6.86812 10.2464 4.66372 11.8717 3.03841C13.497 1.41309 15.7014 0.5 18 0.5ZM26.6666 23.3367C26.6666 25.6333 26.06 30.985 21.9216 36.965L20.1666 26.5L22.2033 22.4267C20.86 22.275 19.4516 22.1667 18 22.1667C16.5483 22.1667 15.14 22.275 13.7966 22.4267L15.8333 26.5L14.0783 36.965C9.93996 30.985 9.33329 25.6333 9.33329 23.3367C4.15496 24.8533 0.666626 27.5833 0.666626 30.8333V39.5H35.3333V30.8333C35.3333 27.5833 31.8666 24.8533 26.6666 23.3367Z" fill="white"/>
</svg>
