<svg width="52" height="48" viewBox="0 0 52 48" fill="none" xmlns="http://www.w3.org/2000/svg">
<path d="M5.00004 0.666687C3.76236 0.666687 2.57538 1.15835 1.70021 2.03352C0.825039 2.90869 0.333374 4.09568 0.333374 5.33335V33.3334C0.333374 34.571 0.825039 35.758 1.70021 36.6332C2.57538 37.5084 3.76236 38 5.00004 38H21.3334V42.6667H16.6667V47.3334H35.3334V42.6667H30.6667V38H47C48.2377 38 49.4247 37.5084 50.2999 36.6332C51.175 35.758 51.6667 34.571 51.6667 33.3334V5.33335C51.6667 4.09568 51.175 2.90869 50.2999 2.03352C49.4247 1.15835 48.2377 0.666687 47 0.666687H5.00004ZM5.00004 5.33335H47V33.3334H5.00004V5.33335ZM33 7.66669L24.8334 15.8334L33 24L36.2667 20.7334L31.3667 15.8334L36.2667 10.9334L33 7.66669ZM19 14.6667L15.7334 17.9334L20.6334 22.8334L15.7334 27.7334L19 31L27.1667 22.8334" fill="white"/>
</svg>
