<svg width="26" height="44" viewBox="0 0 26 44" fill="none" xmlns="http://www.w3.org/2000/svg">
<path d="M22 34H4V6H22V34ZM13 42C12.2044 42 11.4413 41.6839 10.8787 41.1213C10.3161 40.5587 10 39.7956 10 39C10 38.2043 10.3161 37.4413 10.8787 36.8787C11.4413 36.3161 12.2044 36 13 36C13.7956 36 14.5587 36.3161 15.1213 36.8787C15.6839 37.4413 16 38.2043 16 39C16 39.7956 15.6839 40.5587 15.1213 41.1213C14.5587 41.6839 13.7956 42 13 42ZM21 0H5C3.67392 0 2.40215 0.526784 1.46447 1.46447C0.526784 2.40215 0 3.67392 0 5V39C0 40.3261 0.526784 41.5979 1.46447 42.5355C2.40215 43.4732 3.67392 44 5 44H21C22.3261 44 23.5979 43.4732 24.5355 42.5355C25.4732 41.5979 26 40.3261 26 39V5C26 3.67392 25.4732 2.40215 24.5355 1.46447C23.5979 0.526784 22.3261 0 21 0Z" fill="white"/>
</svg>
