<svg width="42" height="28" viewBox="0 0 42 28" fill="none" xmlns="http://www.w3.org/2000/svg">
<path d="M33.25 24.5H10.5C8.64349 24.5 6.86301 23.7625 5.55025 22.4497C4.2375 21.137 3.5 19.3565 3.5 17.5C3.5 15.6435 4.2375 13.863 5.55025 12.5503C6.86301 11.2375 8.64349 10.5 10.5 10.5H11.7425C12.8975 6.4575 16.625 3.5 21 3.5C23.5527 3.5 26.0009 4.51406 27.8059 6.3191C29.6109 8.12414 30.625 10.5723 30.625 13.125V14H33.25C34.6424 14 35.9777 14.5531 36.9623 15.5377C37.9469 16.5223 38.5 17.8576 38.5 19.25C38.5 20.6424 37.9469 21.9777 36.9623 22.9623C35.9777 23.9469 34.6424 24.5 33.25 24.5ZM33.8625 10.5525C33.2711 7.57673 31.6657 4.89827 29.3201 2.97392C26.9745 1.04957 24.034 -0.00148673 21 1.57843e-06C15.9425 1.57843e-06 11.55 2.87 9.3625 7.0525C6.78892 7.33451 4.41007 8.55678 2.68224 10.4848C0.954405 12.4129 -0.000743625 14.911 4.34388e-07 17.5C4.34388e-07 20.2848 1.10625 22.9555 3.07538 24.9246C5.04451 26.8938 7.71523 28 10.5 28H33.25C34.3991 28 35.5369 27.7737 36.5985 27.3339C37.6601 26.8942 38.6247 26.2497 39.4372 25.4372C40.2497 24.6247 40.8942 23.6601 41.3339 22.5985C41.7737 21.5369 42 20.3991 42 19.25C42 14.63 38.4125 10.885 33.8625 10.5525Z" fill="white"/>
</svg>
