<svg width="40" height="48" viewBox="0 0 40 48" fill="none" xmlns="http://www.w3.org/2000/svg">
<path d="M2.66667 0.166626H37.3333C37.908 0.166626 38.4591 0.394899 38.8654 0.801228C39.2717 1.20756 39.5 1.75866 39.5 2.33329V11C39.5 11.5746 39.2717 12.1257 38.8654 12.532C38.4591 12.9384 37.908 13.1666 37.3333 13.1666H2.66667C2.09203 13.1666 1.54093 12.9384 1.1346 12.532C0.728273 12.1257 0.5 11.5746 0.5 11V2.33329C0.5 1.75866 0.728273 1.20756 1.1346 0.801228C1.54093 0.394899 2.09203 0.166626 2.66667 0.166626ZM2.66667 17.5H37.3333C37.908 17.5 38.4591 17.7282 38.8654 18.1346C39.2717 18.5409 39.5 19.092 39.5 19.6666V28.3333C39.5 28.9079 39.2717 29.459 38.8654 29.8654C38.4591 30.2717 37.908 30.5 37.3333 30.5H2.66667C2.09203 30.5 1.54093 30.2717 1.1346 29.8654C0.728273 29.459 0.5 28.9079 0.5 28.3333V19.6666C0.5 19.092 0.728273 18.5409 1.1346 18.1346C1.54093 17.7282 2.09203 17.5 2.66667 17.5ZM2.66667 34.8333H37.3333C37.908 34.8333 38.4591 35.0616 38.8654 35.4679C39.2717 35.8742 39.5 36.4253 39.5 37V45.6666C39.5 46.2413 39.2717 46.7924 38.8654 47.1987C38.4591 47.605 37.908 47.8333 37.3333 47.8333H2.66667C2.09203 47.8333 1.54093 47.605 1.1346 47.1987C0.728273 46.7924 0.5 46.2413 0.5 45.6666V37C0.5 36.4253 0.728273 35.8742 1.1346 35.4679C1.54093 35.0616 2.09203 34.8333 2.66667 34.8333ZM13.5 8.83329H15.6667V4.49996H13.5V8.83329ZM13.5 26.1666H15.6667V21.8333H13.5V26.1666ZM13.5 43.5H15.6667V39.1666H13.5V43.5ZM4.83333 4.49996V8.83329H9.16667V4.49996H4.83333ZM4.83333 21.8333V26.1666H9.16667V21.8333H4.83333ZM4.83333 39.1666V43.5H9.16667V39.1666H4.83333Z" fill="white"/>
</svg>
